<?xml version="1.0" encoding="utf-8"?>
<!-- Generator: Adobe Illustrator 25.0.0, SVG Export Plug-In . SVG Version: 6.00 Build 0)  -->
<svg version="1.1" id="Layer_1" xmlns="http://www.w3.org/2000/svg" xmlns:xlink="http://www.w3.org/1999/xlink" x="0px" y="0px"
	 viewBox="0 0 97.3 114.4" style="enable-background:new 0 0 97.3 114.4;" xml:space="preserve">
<style type="text/css">
	.st0{fill:#14CC60;}
	.st1{font-family:'Impact';}
	.st2{font-size:21.4715px;}
</style>
<g>
	<path class="st0" d="M85,86.5c-2.7-2.3-12.5-10.8-21.7-18.8C46,52.6,31.8,41.2,31.1,41.9c-0.8,0.8,9.5,20.6,13.4,25.7
		c4.5,6,5,9.5,1.3,10c-1.5,0.2-3.9-0.9-6.5-3.1c-2.4-1.9-6.9-4.9-10.1-6.7c-6.8-3.8-24.9-11-26-10.3c-0.9,0.5,0.1,4.8,2,8.6
		c2.5,5.1,0.7,3.9-2.1-1.3C1,61,0.5,59,1,56.7c0.7-2.9,0.9-3,4.2-2.4c2,0.3,7.4,1.8,12.2,3.2c4.7,1.4,9.4,2.8,10.4,3
		c1.4,0.4,0.4-2.2-4.2-11.3C20.3,42.6,17.3,36,17,34.5c-1.1-4.1,1.7-6.7,7-6.7c7,0,19.3,8.6,45.3,31.4c7.2,6.4,13.2,11.2,13.2,10.6
		c0-1.9-7.1-15.3-12.5-23.5c-5.8-8.9-15.1-20.8-25.8-33C31.4-1.2,31.6-0.9,37.5,3.8c8.6,7,28.6,26.8,35,34.6
		c15.1,18.8,27.3,45.7,23,50.9C93.4,91.8,90.2,91,85,86.5L85,86.5z"/>
</g>
<text transform="matrix(1 0 0 1 2.3318 111.2441)"><tspan x="0" y="0" class="st1 st2">SNAP</tspan><tspan x="44.4" y="0" class="st0 st1 st2">LOGIX</tspan></text>
</svg>
