<svg preserveAspectRatio="xMidYMid meet" viewBox="12.746268656716417 17.16 97.28784648187633 92.03999999999999" xmlns="http://www.w3.org/2000/svg" version="1.0" style="max-height: 500px" width="97.28784648187633" height="92.03999999999999">
 <g fill="#0f1211">
  <path d="M97.5 103.7 c-2.7 -2.3 -12.5 -10.8 -21.7 -18.8 -17.3 -15.1 -31.5 -26.5 -32.2 -25.8 -0.8 0.8 9.5 20.6 13.4 25.7 4.5 6 5 9.5 1.3 10 -1.5 0.2 -3.9 -0.9 -6.5 -3.1 -2.4 -1.9 -6.9 -4.9 -10.1 -6.7 -6.8 -3.8 -24.9 -11 -26 -10.3 -0.9 0.5 0.1 4.8 2 8.6 2.5 5.1 0.7 3.9 -2.1 -1.3 -2.1 -3.8 -2.6 -5.8 -2.1 -8.1 0.7 -2.9 0.9 -3 4.2 -2.4 2 0.3 7.4 1.8 12.2 3.2 4.7 1.4 9.4 2.8 10.4 3 1.4 0.4 0.4 -2.2 -4.2 -11.3 -3.3 -6.6 -6.3 -13.2 -6.6 -14.7 -1.1 -4.1 1.7 -6.7 7 -6.7 7 0 19.3 8.6 45.3 31.4 7.2 6.4 13.2 11.2 13.2 10.6 0 -1.9 -7.1 -15.3 -12.5 -23.5 -5.8 -8.9 -15.1 -20.8 -25.8 -33 -12.8 -14.5 -12.6 -14.2 -6.7 -9.5 8.6 7 28.6 26.8 35 34.6 15.1 18.8 27.3 45.7 23 50.9 -2.1 2.5 -5.3 1.7 -10.5 -2.8z"/>
 </g>
</svg>